
<svg width="72" height="72" viewBox="0 0 72 72" fill="none" xmlns="http://www.w3.org/2000/svg">
<path d="M54 30H42V18C42 16.4087 41.3679 14.8826 40.2426 13.7574C39.1174 12.6321 37.5913 12 36 12C34.4087 12 32.8826 12.6321 31.7574 13.7574C30.6321 14.8826 30 16.4087 30 18L30.213 30H18C16.4087 30 14.8826 30.6321 13.7574 31.7574C12.6321 32.8826 12 34.4087 12 36C12 37.5913 12.6321 39.1174 13.7574 40.2426C14.8826 41.3679 16.4087 42 18 42L30.213 41.787L30 54C30 55.5913 30.6321 57.1174 31.7574 58.2426C32.8826 59.3679 34.4087 60 36 60C37.5913 60 39.1174 59.3679 40.2426 58.2426C41.3679 57.1174 42 55.5913 42 54V41.787L54 42C55.5913 42 57.1174 41.3679 58.2426 40.2426C59.3679 39.1174 60 37.5913 60 36C60 34.4087 59.3679 32.8826 58.2426 31.7574C57.1174 30.6321 55.5913 30 54 30Z" fill="#505050"/>
</svg>
