<svg width="72" height="72" viewBox="0 0 72 72" fill="none" xmlns="http://www.w3.org/2000/svg">
<path d="M42 9.807C42 7.704 40.296 6 38.193 6H33.81C31.704 6 30 7.704 30 9.807C30 11.541 28.812 13.029 27.195 13.665C26.939 13.769 26.686 13.875 26.436 13.983C24.843 14.673 22.95 14.463 21.72 13.236C21.0057 12.5234 20.038 12.1231 19.029 12.1231C18.02 12.1231 17.0523 12.5234 16.338 13.236L13.236 16.338C12.5234 17.0523 12.1231 18.02 12.1231 19.029C12.1231 20.038 12.5234 21.0057 13.236 21.72C14.466 22.95 14.676 24.84 13.98 26.436C13.8707 26.6872 13.7657 26.9402 13.665 27.195C13.029 28.812 11.541 30 9.807 30C7.704 30 6 31.704 6 33.807V38.193C6 40.296 7.704 42 9.807 42C11.541 42 13.029 43.188 13.665 44.805C13.769 45.061 13.874 45.314 13.98 45.564C14.673 47.157 14.463 49.05 13.236 50.28C12.5234 50.9943 12.1231 51.962 12.1231 52.971C12.1231 53.98 12.5234 54.9477 13.236 55.662L16.338 58.764C17.0523 59.4766 18.02 59.8769 19.029 59.8769C20.038 59.8769 21.0057 59.4766 21.72 58.764C22.95 57.534 24.84 57.324 26.436 58.017C26.686 58.127 26.939 58.233 27.195 58.335C28.812 58.971 30 60.459 30 62.193C30 64.296 31.704 66 33.807 66H38.193C40.296 66 42 64.296 42 62.193C42 60.459 43.188 58.971 44.805 58.332C45.061 58.232 45.314 58.128 45.564 58.02C47.157 57.324 49.05 57.537 50.277 58.764C50.9914 59.4775 51.9598 59.8783 52.9695 59.8783C53.9792 59.8783 54.9476 59.4775 55.662 58.764L58.764 55.662C59.4766 54.9477 59.8769 53.98 59.8769 52.971C59.8769 51.962 59.4766 50.9943 58.764 50.28C57.534 49.05 57.324 47.16 58.017 45.564C58.127 45.314 58.233 45.061 58.335 44.805C58.971 43.188 60.459 42 62.193 42C64.296 42 66 40.296 66 38.193V33.81C66 31.707 64.296 30.003 62.193 30.003C60.459 30.003 58.971 28.815 58.332 27.198C58.2313 26.9432 58.1263 26.6902 58.017 26.439C57.327 24.846 57.537 22.953 58.764 21.723C59.4766 21.0087 59.8769 20.041 59.8769 19.032C59.8769 18.023 59.4766 17.0553 58.764 16.341L55.662 13.239C54.9477 12.5264 53.98 12.1261 52.971 12.1261C51.962 12.1261 50.9943 12.5264 50.28 13.239C49.05 14.469 47.16 14.679 45.564 13.986C45.3128 13.8757 45.0598 13.7697 44.805 13.668C43.188 13.029 42 11.538 42 9.807Z" stroke="#505050" stroke-width="6"/>
<path d="M48 36C48 39.1826 46.7357 42.2348 44.4853 44.4853C42.2348 46.7357 39.1826 48 36 48C32.8174 48 29.7652 46.7357 27.5147 44.4853C25.2643 42.2348 24 39.1826 24 36C24 32.8174 25.2643 29.7652 27.5147 27.5147C29.7652 25.2643 32.8174 24 36 24C39.1826 24 42.2348 25.2643 44.4853 27.5147C46.7357 29.7652 48 32.8174 48 36Z" stroke="#505050" stroke-width="6"/>
</svg>

