<svg width="72" height="72" viewBox="0 0 72 72" fill="none" xmlns="http://www.w3.org/2000/svg">
<path d="M63 21V57C63 58.65 62.413 60.063 61.239 61.239C60.065 62.415 58.652 63.002 57 63H15C13.35 63 11.938 62.413 10.764 61.239C9.59 60.065 9.002 58.652 9 57V15C9 13.35 9.588 11.938 10.764 10.764C11.94 9.59 13.352 9.002 15 9H51L63 21ZM57 23.55L48.45 15H15V57H57V23.55ZM36 54C38.5 54 40.625 53.125 42.375 51.375C44.125 49.625 45 47.5 45 45C45 42.5 44.125 40.375 42.375 38.625C40.625 36.875 38.5 36 36 36C33.5 36 31.375 36.875 29.625 38.625C27.875 40.375 27 42.5 27 45C27 47.5 27.875 49.625 29.625 51.375C31.375 53.125 33.5 54 36 54ZM18 30H45V18H18V30ZM15 23.55V57V15V23.55Z" fill="#505050"/>
</svg>
